<svg xmlns="http://www.w3.org/2000/svg" xmlns:xlink="http://www.w3.org/1999/xlink" version="1.1" viewBox="485 0 530 126"><svg xml:space="preserve" width="1500" height="126" data-version="2" data-id="lg_XjfjPy4jHvm33I4v7N" viewBox="0 0 530 126" x="0" y="0"><rect width="100%" height="100%" fill="transparent"/><circle r="59.32" fill="#ff5c40" transform="translate(66.94 63)scale(1.0414)"/><path fill="#ff5c40" d="M214.43 25.83v76.64h-10.18v-33.6h-40.17v33.6H153.8V25.83h10.28v33.28h40.17V25.83Z"/><rect width="60.63" height="76.64" x="-30.32" y="-38.32" fill="none" rx="0" ry="0" transform="translate(184.62 64.65)"/><path fill="#ff5c40" d="M254.39 103.53q-7.52 0-12.93-3.02t-8.32-8.27q-2.92-5.25-2.92-12.03 0-6.47 3.29-11.77t8.8-8.48q5.51-3.18 12.29-3.18 8.7 0 14.42 5.09 5.72 5.09 7.74 13.99l-36.15 12.72-2.33-5.83 29.68-10.81-2.12 1.38q-1.27-3.5-4.24-6.1-2.97-2.59-7.74-2.59-4.03 0-7.21 1.96-3.18 1.96-4.98 5.35-1.8 3.39-1.8 7.74 0 4.56 1.91 8 1.91 3.45 5.24 5.41 3.34 1.96 7.58 1.96 2.87 0 5.57-1.06t5.03-2.76l4.56 7.32q-3.28 2.22-7.37 3.6-4.08 1.38-8 1.38"/><rect width="46.54" height="46.75" x="-23.27" y="-23.38" fill="none" rx="0" ry="0" transform="translate(253.99 80.66)"/><path fill="#ff5c40" d="M289.16 20.42h9.86v82.05h-9.86Z"/><rect width="9.86" height="82.05" x="-4.93" y="-41.02" fill="none" rx="0" ry="0" transform="translate(294.59 61.95)"/><path fill="#ff5c40" d="M316.08 58.58h9.86v43.89h-9.86Zm-.74-15.9q0-2.33 1.86-3.92 1.85-1.59 4.08-1.59 2.22 0 3.97 1.59t1.75 3.92q0 2.44-1.75 3.98t-3.97 1.54q-2.23 0-4.08-1.59-1.86-1.59-1.86-3.93"/><rect width="11.66" height="65.3" x="-5.83" y="-32.65" fill="none" rx="0" ry="0" transform="translate(321.67 70.32)"/><path fill="#ff5c40" d="M361.24 103.53q-6.15 0-11.18-2.65-5.04-2.65-7.95-7.79-2.92-5.14-2.92-12.56 0-7.32 3.08-12.67 3.07-5.35 8.21-8.22 5.14-2.86 11.29-2.86 6.15 0 10.39 2.81t6.46 6.63l-.63 1.69.95-9.33h9.12v43.89h-9.86V91.02l1.06 2.54q-.42 1.06-1.86 2.71-1.43 1.64-3.81 3.34-2.39 1.69-5.46 2.81-3.07 1.11-6.89 1.11m2.65-8.16q3.71 0 6.68-1.38 2.97-1.38 4.93-3.87 1.96-2.49 2.7-5.99v-8.59q-.85-3.18-2.97-5.56-2.12-2.39-5.09-3.71-2.96-1.33-6.57-1.33-3.92 0-7.21 1.91-3.28 1.91-5.24 5.3-1.96 3.39-1.96 7.95 0 4.24 2.01 7.74t5.41 5.51q3.39 2.02 7.31 2.02"/><rect width="48.87" height="46.75" x="-24.43" y="-23.38" fill="none" rx="0" ry="0" transform="translate(364.13 80.66)"/><path fill="#ff5c40" d="m433.43 102.47 33.49-79.82h.64l33.39 79.82h-11.77l-25.01-63.71 7.31-4.77-27.98 68.48Zm19.61-29.05h28.51l3.39 8.91h-34.87Z"/><rect width="67.52" height="79.82" x="-33.76" y="-39.91" fill="none" rx="0" ry="0" transform="translate(467.69 63.06)"/><path fill="#ff5c40" d="M512.93 58.58h9.85v43.89h-9.85Zm-.75-15.9q0-2.33 1.86-3.92 1.85-1.59 4.08-1.59t3.97 1.59q1.75 1.59 1.75 3.92 0 2.44-1.75 3.98-1.74 1.54-3.97 1.54-2.23 0-4.08-1.59-1.86-1.59-1.86-3.93"/><rect width="11.66" height="65.3" x="-5.83" y="-32.65" fill="none" rx="0" ry="0" transform="translate(518.51 70.32)"/><path fill="#fff" d="M63.36 41.25v40.49h-5.38V63.99H36.76v17.75h-5.44V41.25h5.44v17.59h21.22V41.25Z" paint-order="stroke"/><rect width="32.04" height="40.49" x="-16.02" y="-20.25" fill="none" rx="0" ry="0" transform="translate(47.84 62)"/><path fill="#fff" d="m70.97 81.74 17.7-42.17H89l17.64 42.17h-6.21L87.21 48.08l3.87-2.52-14.79 36.18ZM81.33 66.4H96.4l1.79 4.7H79.76Z" paint-order="stroke"/><rect width="35.67" height="42.17" x="-17.84" y="-21.09" fill="none" rx="0" ry="0" transform="translate(89.3 61.16)"/></svg></svg>